# xmcd CD database file
#
# Track frame offsets:
#	150
#	15472
#	30517
#	51137
#	70455
#	88935
#	102845
#	120920
#	138952
#	159700
#	175255
#	189402
#
# Disc length: 2778 seconds
#
# Revision: 1
# Processed by: cddbd v1.5.1PL2 Copyright (c) Steve Scherf et al.
# Submitted via: CDex 1.60beta1-cs1
#
DISCID=970ad80c
DTITLE=憂歌団 - Taste of UKADAN
DYEAR=1900
DGENRE=Blues
TTITLE0=SLOW BOAT CHINA
TTITLE1=ブラタナスの並木道
TTITLE2=愛しのパラダイス
TTITLE3=Hang over of YOU ～君に宿酔～
TTITLE4=夢の印度
TTITLE5=心はいつも上天気
TTITLE6=You are my Angel
TTITLE7=渚のボード・ウォーク
TTITLE8=ア・イ・シ・テ・ル
TTITLE9=Whiskey Mood
TTITLE10=Boy, My Boy
TTITLE11=嘘は罪
EXTD=
EXTT0=
EXTT1=
EXTT2=
EXTT3=
EXTT4=
EXTT5=
EXTT6=
EXTT7=
EXTT8=
EXTT9=
EXTT10=
EXTT11=
PLAYORDER=
